<?xml version="1.0" encoding="utf-8"?>
<!-- Generator: Adobe Illustrator 25.2.1, SVG Export Plug-In . SVG Version: 6.00 Build 0)  -->
<svg version="1.1" id="Layer_1" xmlns="http://www.w3.org/2000/svg" xmlns:xlink="http://www.w3.org/1999/xlink" x="0px" y="0px"
	 viewBox="0 0 194.5 101.2" style="enable-background:new 0 0 194.5 101.2;" xml:space="preserve">
<g>
	<g>
		<path style="fill:#333;" d="M10.1,84.5V63.4h13.3v4h-8.5v4.9h7.3v4h-7.3v8.2H10.1z"/>
		<path style="fill:#333;" d="M31,84.9c-0.8,0-1.5-0.1-2.1-0.4c-0.6-0.3-1-0.6-1.3-1.1c-0.3-0.5-0.6-1-0.7-1.7
			c-0.2-0.7-0.2-1.4-0.2-2.2V61.8h4.8v17.9c0,0.5,0.1,0.8,0.3,1c0.2,0.2,0.4,0.3,0.6,0.3c0.1,0,0.2,0,0.3,0c0.1,0,0.2,0,0.3-0.1
			l0.6,3.5c-0.3,0.1-0.6,0.2-1,0.3C32,84.9,31.6,84.9,31,84.9z"/>
		<path style="fill:#333;" d="M40.7,84.9c-1.7,0-3-0.6-3.8-1.7c-0.8-1.1-1.2-2.7-1.2-4.8v-10h4.8v9.4c0,1.2,0.2,2,0.5,2.4
			c0.3,0.4,0.8,0.6,1.5,0.6c0.6,0,1.1-0.1,1.5-0.4c0.4-0.3,0.9-0.7,1.3-1.4V68.5h4.8v16.1h-3.9l-0.4-2.2h-0.1
			c-0.7,0.8-1.4,1.5-2.2,1.9C42.8,84.7,41.8,84.9,40.7,84.9z"/>
		<path style="fill:#333;" d="M61.2,84.9c-1,0-2-0.2-2.9-0.6c-1-0.4-1.8-0.9-2.5-1.6C55,82,54.4,81.1,54,80.1
			c-0.4-1-0.6-2.2-0.6-3.6c0-1.3,0.2-2.5,0.6-3.6c0.4-1,1-1.9,1.7-2.6c0.7-0.7,1.6-1.3,2.5-1.6c0.9-0.4,1.9-0.6,2.9-0.6
			c1,0,2,0.2,2.9,0.6c0.9,0.4,1.8,0.9,2.5,1.6c0.7,0.7,1.3,1.6,1.7,2.6c0.4,1,0.6,2.2,0.6,3.6c0,1.3-0.2,2.5-0.6,3.6
			c-0.4,1-1,1.9-1.7,2.6c-0.7,0.7-1.6,1.3-2.5,1.6C63.2,84.7,62.2,84.9,61.2,84.9z M61.2,81.1c1,0,1.7-0.4,2.2-1.2
			c0.5-0.8,0.7-1.9,0.7-3.3c0-1.4-0.2-2.5-0.7-3.3c-0.5-0.8-1.2-1.2-2.2-1.2c-1,0-1.7,0.4-2.2,1.2c-0.5,0.8-0.7,1.9-0.7,3.3
			c0,1.4,0.2,2.5,0.7,3.3C59.5,80.7,60.2,81.1,61.2,81.1z"/>
		<path style="fill:#333;" d="M72.3,84.5V68.5h3.9l0.3,2.8h0.1c0.6-1.1,1.3-1.9,2.1-2.4c0.8-0.5,1.6-0.8,2.5-0.8
			c0.5,0,0.8,0,1.1,0.1c0.3,0.1,0.6,0.1,0.8,0.2l-0.8,4.1c-0.3-0.1-0.6-0.2-0.8-0.2c-0.3,0-0.6-0.1-0.9-0.1c-0.6,0-1.2,0.2-1.9,0.6
			c-0.7,0.4-1.2,1.2-1.6,2.3v9.3H72.3z"/>
		<path style="fill:#333;" d="M91.7,84.9c-1,0-2-0.2-2.9-0.6c-1-0.4-1.8-0.9-2.5-1.6c-0.7-0.7-1.3-1.6-1.7-2.6
			c-0.4-1-0.6-2.2-0.6-3.6c0-1.3,0.2-2.5,0.6-3.6c0.4-1,1-1.9,1.7-2.6c0.7-0.7,1.6-1.3,2.5-1.6c0.9-0.4,1.9-0.6,2.9-0.6
			c1,0,2,0.2,2.9,0.6c0.9,0.4,1.8,0.9,2.5,1.6c0.7,0.7,1.3,1.6,1.7,2.6c0.4,1,0.6,2.2,0.6,3.6c0,1.3-0.2,2.5-0.6,3.6
			c-0.4,1-1,1.9-1.7,2.6c-0.7,0.7-1.6,1.3-2.5,1.6C93.7,84.7,92.7,84.9,91.7,84.9z M91.7,81.1c1,0,1.7-0.4,2.2-1.2
			c0.5-0.8,0.7-1.9,0.7-3.3c0-1.4-0.2-2.5-0.7-3.3c-0.5-0.8-1.2-1.2-2.2-1.2c-1,0-1.7,0.4-2.2,1.2c-0.5,0.8-0.7,1.9-0.7,3.3
			c0,1.4,0.2,2.5,0.7,3.3C90,80.7,90.7,81.1,91.7,81.1z"/>
		<path style="fill:#333;" d="M103.8,84.5V63.2h11.6v1.3h-10.1V73h8.6v1.3h-8.6v10.3H103.8z"/>
		<path style="fill:#333;" d="M119.9,65.2c-0.4,0-0.7-0.1-0.9-0.4c-0.2-0.2-0.4-0.5-0.4-0.9c0-0.4,0.1-0.7,0.4-1
			c0.2-0.2,0.6-0.3,0.9-0.3c0.4,0,0.7,0.1,0.9,0.3c0.2,0.2,0.4,0.5,0.4,1c0,0.4-0.1,0.7-0.4,0.9C120.5,65.1,120.2,65.2,119.9,65.2z
			 M119.1,84.5V69h1.4v15.5H119.1z"/>
		<path style="fill:#333;" d="M126.5,84.5V69h1.2l0.1,2.4h0.1c0.8-0.8,1.6-1.5,2.5-2c0.8-0.5,1.8-0.8,2.9-0.8
			c1.6,0,2.8,0.5,3.6,1.5c0.8,1,1.1,2.5,1.1,4.5v10h-1.4v-9.8c0-1.7-0.3-2.9-0.8-3.7c-0.6-0.8-1.5-1.2-2.7-1.2
			c-0.9,0-1.8,0.2-2.5,0.7c-0.8,0.5-1.6,1.2-2.6,2.2v11.7H126.5z"/>
		<path style="fill:#333;" d="M148.9,84.9c-2,0-3.5-0.7-4.7-2.1c-1.2-1.4-1.7-3.4-1.7-6c0-1.3,0.2-2.4,0.6-3.4
			c0.4-1,0.9-1.9,1.5-2.6c0.6-0.7,1.4-1.3,2.2-1.6c0.8-0.4,1.7-0.6,2.6-0.6c0.9,0,1.8,0.2,2.5,0.5c0.7,0.3,1.4,0.8,2.2,1.4l-0.1-2.8
			v-6.4h1.4v23.3h-1.2l-0.1-2H154c-0.6,0.6-1.4,1.2-2.2,1.7C150.9,84.7,149.9,84.9,148.9,84.9z M149.1,83.7c0.9,0,1.7-0.2,2.5-0.7
			c0.8-0.4,1.6-1.1,2.4-1.9v-9.2c-0.8-0.7-1.6-1.3-2.3-1.6c-0.7-0.3-1.5-0.5-2.2-0.5c-0.8,0-1.5,0.2-2.2,0.5
			c-0.7,0.4-1.2,0.8-1.7,1.5c-0.5,0.6-0.9,1.3-1.1,2.2c-0.3,0.9-0.4,1.8-0.4,2.7c0,1,0.1,2,0.3,2.8c0.2,0.8,0.6,1.6,1,2.2
			c0.4,0.6,1,1.1,1.6,1.4C147.6,83.5,148.3,83.7,149.1,83.7z"/>
		<path style="fill:#333;" d="M167.3,84.9c-1,0-1.9-0.2-2.8-0.6c-0.9-0.4-1.6-0.9-2.3-1.6c-0.6-0.7-1.2-1.6-1.5-2.6
			c-0.4-1-0.6-2.1-0.6-3.4c0-1.3,0.2-2.4,0.6-3.4c0.4-1,0.9-1.9,1.5-2.6c0.6-0.7,1.4-1.2,2.2-1.6c0.8-0.4,1.6-0.6,2.5-0.6
			c1.9,0,3.3,0.6,4.4,1.9c1.1,1.3,1.6,3,1.6,5.3c0,0.2,0,0.4,0,0.6s0,0.4-0.1,0.6h-11.2c0,1,0.2,1.9,0.5,2.7
			c0.3,0.8,0.7,1.5,1.2,2.1c0.5,0.6,1.1,1.1,1.8,1.4c0.7,0.3,1.5,0.5,2.4,0.5c0.8,0,1.6-0.1,2.3-0.4c0.7-0.2,1.3-0.6,1.9-1l0.6,1.1
			c-0.6,0.4-1.3,0.7-2.1,1C169.4,84.8,168.4,84.9,167.3,84.9z M161.5,75.8h9.9c0-2-0.4-3.5-1.2-4.5c-0.8-1-1.9-1.5-3.3-1.5
			c-0.7,0-1.3,0.1-1.9,0.4c-0.6,0.3-1.1,0.7-1.6,1.2c-0.5,0.5-0.9,1.1-1.2,1.9C161.8,74,161.6,74.9,161.5,75.8z"/>
		<path style="fill:#333;" d="M177,84.5V69h1.2l0.1,2.9h0.1c0.5-1,1.1-1.8,1.9-2.4c0.7-0.6,1.6-0.9,2.5-0.9c0.3,0,0.6,0,0.8,0.1
			c0.2,0,0.5,0.1,0.7,0.3l-0.3,1.3c-0.3-0.1-0.5-0.2-0.7-0.2c-0.2,0-0.4,0-0.7,0c-0.7,0-1.4,0.3-2.2,0.9c-0.8,0.6-1.5,1.6-2.1,3.1
			v10.6H177z"/>
	</g>
	<g>
		<linearGradient id="SVGID_1_" gradientUnits="userSpaceOnUse" x1="37.2005" y1="38.1066" x2="146.5438" y2="38.1066">
			<stop  offset="0" style="stop-color:#746EEF"/>
			<stop  offset="0.1419" style="stop-color:#6F74EE"/>
			<stop  offset="0.3288" style="stop-color:#6084EB"/>
			<stop  offset="0.5411" style="stop-color:#49A0E7"/>
			<stop  offset="0.7706" style="stop-color:#28C6E0"/>
			<stop  offset="1" style="stop-color:#00F3D9"/>
		</linearGradient>
		<path style="fill:url(#SVGID_1_);" d="M146.5,41.5C146.5,41.5,146.5,41.5,146.5,41.5c0-0.2,0-0.2-0.1-0.3
			c-0.1-0.3-0.3-0.8-0.8-1.6c-3-5.1-6.2-9-9.6-11.7c-3.2-2.5-6.6-4-10.3-4.5c-1.7-0.2-3.5-0.3-5.3-0.1c-2.9-1.9-5.9-3.4-8.8-4.6
			c-7.3-2.8-15.1-3.3-22.5-1.5c-5.6,1.4-11.3,4-16.9,7.9c-1.8,1.3-3.6,2.7-5.6,4.4c-0.4,0.4-0.9,0.8-1.3,1.2
			c-0.7,0.6-1.4,1.2-2.1,1.8c-0.1,0.1-0.2,0.2-0.3,0.3l-0.1,0.1c-1.5-0.2-2.8-0.3-4-0.3c-3.6-0.1-7,0.4-10,1.5
			c-3.3,1.2-6.3,3.1-9.1,5.8c-0.5,0.5-0.9,0.9-1.4,1.4c-0.2,0.3-0.5,0.5-0.7,0.8c-0.3,0.3-0.4,0.7-0.3,1.1c0.1,0.3,0.3,0.4,0.5,0.6
			c0.4,0.2,0.8,0.5,1.2,0.7c0.3,0.2,0.7,0.5,1.1,0.7c0.7,0.4,1.4,0.9,2.1,1.3c1.4,0.8,2.8,1.5,4.3,2c0.3,0.1,0.6,0.2,0.8,0.3
			c0.1,0.1,0.3,0.1,0.4,0.2c0.1,0,0.3,0.1,0.4,0.1c0.7,0.7,1.4,1.3,2,1.8c2.9,2.3,6,3.5,9.5,3.8c2.6,0.2,5.3-0.1,8.4-1
			c3.2,2.1,6.8,4.2,10.8,5.4c2,0.6,4,0.9,6,0.9c1.2,0,2.4-0.1,3.6-0.3c3.4-0.7,6.7-2.4,10.6-5.4c1.9-1.5,3.7-3.1,5.4-4.6l0.2-0.2
			c7.1,2.4,13,3.5,18.5,3.4c3.9,0,7.5-0.7,10.9-2c3.6-1.4,7-3.5,10.2-6.3c0.8-0.7,1.6-1.5,2.4-2.3c0.1-0.1,0.2-0.2,0.2-0.4
			C146.5,41.8,146.6,41.7,146.5,41.5z M43.5,44.1c0.1,0,0.3-0.1,0.4-0.1c0.5,0.8,1,1.5,1.5,2.2c-1.2-0.6-2.4-1.2-3.6-1.9
			C42.4,44.2,42.9,44.2,43.5,44.1z M104.3,29.4c-3.7,2.1-7.4,4.6-10.9,7c-1,0.7-1.9,1.3-2.9,2c-1.1,0.8-2.2,1.5-3.3,2.3
			c-2.4-1-4.4-1.8-6.5-2.7c1.1-0.9,2.1-1.9,3.2-2.9l1.4-1.2c3.2-2.9,6.7-5.8,10.7-7.5c3.3-1.4,7-1.8,10.6-1c1.2,0.2,2.3,0.6,3.5,1
			C108.3,27.2,106.4,28.2,104.3,29.4z M85.4,41.9c-0.9,0.6-1.8,1.2-2.7,1.8c-4.2,2.7-7.4,4.6-10.4,6c-1.7,0.8-3.2,1.4-4.7,1.8
			l-1.3-0.9c-0.6-0.4-1.2-0.8-1.8-1.2c-0.2-0.1-0.4-0.3-0.6-0.4c3.6-1.4,7.2-3.4,10.9-6.1c1.3-1,2.7-2.1,4.4-3.5
			C81,40.1,83,40.9,85.4,41.9z M61.8,49.7l0.2,0.1c1.1,0.7,2.2,1.4,3.3,2.1l0.2,0.1c-1,0.2-2,0.4-3,0.4c-3.1,0.2-5.5-0.2-7.8-1.3
			c-0.4-0.2-0.9-0.4-1.3-0.7l0,0c-0.2-0.1-0.3-0.2-0.5-0.3C55.9,50.8,58.9,50.6,61.8,49.7z M59.8,48.5
			C59.7,48.5,59.7,48.5,59.8,48.5c-2,0.4-4.1,0.5-6.3,0.2c-1.3-0.2-2.5-0.5-3.9-0.9c-1.2-1.1-2.3-2.4-3.3-3.8
			C51.2,43.9,55.8,46.1,59.8,48.5z M141.9,40.5c-1.3-0.1-2.6-0.4-3.9-0.8c-0.3-0.4-0.9-1.2-1.5-1.8
			C138.3,38.5,140.1,39.4,141.9,40.5z M131,36.4L131,36.4c0.7,0.1,1.5,0.3,2.4,0.5l0.1,0.1c0.5,0.5,0.9,1.1,1.4,1.6
			c-1.4-0.6-2.9-1.3-4.5-2.3C130.6,36.3,130.8,36.4,131,36.4z M131.4,34.7c-1-0.1-1.9-0.2-2.9-0.2c-0.3,0-0.7,0-1,0l-0.5-0.3v0
			c-1.1-0.7-2.2-1.5-3.4-2.2c-2.7-1.8-5.5-3.7-8.4-5.2c1.9-0.6,3.8-1,5.5-1.2C124.3,28,127.9,31.1,131.4,34.7z M134.6,35.4
			c-0.1,0-0.2,0-0.3-0.1l0,0c-3.5-3.9-7.1-7.2-10.8-9.9c3.2,0.1,6.2,1,9,2.6c3.4,2,6.6,5.1,9.5,9.4c0.4,0.6,0.8,1.2,1.2,1.8
			C140.4,37.5,137.5,36.2,134.6,35.4z M115.1,24.5c-0.9,0.3-1.8,0.6-2.7,0.9c-1.2-0.5-2.2-0.9-3.1-1.2c-3.5-1-7-1.2-10.2-0.6
			c-3.6,0.7-7.2,2.6-11.3,5.8c-2,1.6-3.9,3.3-5.7,4.9c-1.1,1-2.1,1.9-3.2,2.9c-4-1.5-8.8-3.2-13.7-4.1c0.8-0.6,1.6-1.3,2.3-1.9
			c1.3-1.1,2.6-2.2,3.9-3.2c5.1-3.9,10.3-6.6,15.3-8.3c7-2.3,14.4-2.4,21.3-0.5c3.3,1,6.7,2.5,10,4.4C117,24,116.1,24.2,115.1,24.5z
			 M66,46.1c-1.5,0.7-2.8,1.3-4,1.7c-3.7-2.3-7.9-4.6-12.6-5.4c0.3-0.1,0.5-0.2,0.8-0.3c4-1.6,8-3.9,12.1-6.7
			c0.2-0.2,0.5-0.4,0.7-0.5l0.2-0.1c5,0.7,9.9,2.3,14.1,3.9C73.3,41.9,69.6,44.4,66,46.1z M53.3,38.7c-2.4,1.2-4.6,2.1-6.7,2.8
			c-0.6,0.2-1.1,0.3-1.8,0.5c-0.6-0.9-1.1-1.8-1.7-2.8c1.4-1.1,2.8-1.9,4.3-2.6c2.8-1.3,6-2.1,9.4-2.2c1.2,0,2.4,0,3.6,0.1
			C58.5,35.9,56.1,37.3,53.3,38.7z M41.7,40.4c0.4,0.7,0.8,1.4,1.2,2c-0.8,0.1-1.6,0.1-2.3,0.1c-0.3,0-0.7,0-1-0.1
			C40.3,41.7,41,41,41.7,40.4z M80,47.9c2.8-1.7,5.4-3.5,7.7-5.1l1.1,0.5c3.8,1.6,7.7,3.2,11.6,4.7c0.7,0.3,1.4,0.5,2.1,0.8
			l-1.4,1.2c-3,2.7-6.2,5.4-10.1,7c-3.1,1.3-6.6,1.6-9.9,1c-4.1-0.8-7.8-2.8-11.2-4.9C72.9,51.9,76.1,50.2,80,47.9z M102.8,47
			c-4.5-1.6-9-3.5-13.4-5.3l1.8-1.3c3.3-2.3,6.8-4.7,10.2-6.8c4.1-2.6,7.5-4.4,10.7-5.7c0.2-0.1,0.4-0.2,0.7-0.3
			c3.3,1.6,6.5,3.7,9.5,5.7c0.6,0.4,1.3,0.9,1.9,1.3c0.2,0.1,0.3,0.2,0.5,0.3c-0.8,0.2-1.5,0.4-2.3,0.6c-3.8,1.3-7.6,3.3-11.5,6.2
			c-2.3,1.7-4.5,3.5-7,5.7C103.6,47.3,103.2,47.1,102.8,47z M108.3,45.9c3.8-3.2,7.4-5.5,10.9-7.2c1.6-0.8,3.7-1.7,5.9-2.2
			c0.5-0.1,1.1-0.2,1.8-0.3c4.5,2.9,9.9,5.8,16,6.1c0.2,0,0.5,0,0.7,0c-2.7,2.5-5.5,4.5-8.5,5.9c-3.2,1.5-6.7,2.4-10.4,2.6
			c-5.5,0.4-11.5-0.6-18.9-2.9C106.7,47.3,107.5,46.6,108.3,45.9z"/>
	</g>
</g>
</svg>
