<?xml version="1.0" encoding="utf-8"?>
<!-- Generator: Adobe Illustrator 16.0.0, SVG Export Plug-In . SVG Version: 6.00 Build 0)  -->
<!DOCTYPE svg PUBLIC "-//W3C//DTD SVG 1.1//EN" "http://www.w3.org/Graphics/SVG/1.1/DTD/svg11.dtd">
<svg version="1.1" xmlns="http://www.w3.org/2000/svg" xmlns:xlink="http://www.w3.org/1999/xlink" x="0px" y="0px"
	 width="841.89px" height="595.28px" viewBox="0 0 841.89 595.28" enable-background="new 0 0 841.89 595.28" xml:space="preserve">
<g id="txt">
	<g>
		<path d="M304.848,307.715c0-2.775-1.246-4.699-2.831-6.114c-1.533-1.356-3.793-2.942-10.02-2.942h-6.965v16.869
			c0,0.397-0.283,0.736-0.676,0.736c-0.397,0-0.739-0.339-0.739-0.736v-38.153c0-0.395,0.342-0.737,0.739-0.737h0.055h0.059h11.49
			c6.057,0,11.034,4.925,11.034,11.04c0,5.038-3.337,9.228-7.921,10.529c0.676,0.281,1.356,0.623,2.036,1.019
			c2.492,1.415,5.153,4.133,5.153,8.49c0,3.227,0.452,4.982,0.846,5.773c0.396,0.736,0.738,0.68,0.911,0.68
			c0.449-0.055,0.846,0.227,0.9,0.568c0.118,0.734-0.511,0.904-0.963,0.904c-0.566,0-1.47-0.396-2.036-1.527
			C305.245,312.979,304.848,311.111,304.848,307.715z M295.96,297.184h0.11c5.208-0.055,9.454-4.187,9.454-9.507
			c0-5.322-4.301-9.625-9.564-9.625h-10.928v19.132H295.96z"/>
		<path d="M320.602,316.264h-0.11c-0.456,0-0.684-0.339-0.684-0.736v-38.153c0-0.34,0.228-0.68,0.684-0.737h0.055h0.055h21.003
			c0.397,0,0.68,0.342,0.68,0.737s-0.282,0.678-0.68,0.678h-20.382v17.662h17.945c0.396,0,0.68,0.34,0.68,0.68
			c0,0.452-0.283,0.735-0.68,0.735h-17.945v17.718h20.382c0.397,0,0.68,0.283,0.68,0.68c0,0.397-0.282,0.736-0.68,0.736h-20.948
			H320.602z"/>
		<path d="M353.397,277.374c0-0.395,0.286-0.737,0.738-0.737h0.052h7.535c10.976,0,19.809,8.89,19.809,19.757
			c0,10.983-8.833,19.87-19.809,19.87h-7.535h-0.052c-0.452,0-0.738-0.339-0.738-0.736V277.374z M361.722,314.848
			c10.186-0.111,18.338-8.265,18.394-18.454c-0.056-10.077-8.208-18.342-18.394-18.342h-6.91v36.795H361.722z"/>
		<path d="M431.521,279.524l-14.439,20.097c-0.169,0.17-0.396,0.281-0.621,0.281h-0.113c-0.283,0-0.508-0.111-0.625-0.281
			l-14.49-20.154v36.06c0,0.397-0.283,0.736-0.68,0.736c-0.394,0-0.735-0.339-0.735-0.736v-38.098c0-0.338,0.342-0.735,0.735-0.735
			c0.059,0,0.11,0,0.173,0.057c0.169,0,0.334,0.114,0.507,0.228l15.174,21.056l15.17-21.056c0.113-0.114,0.279-0.228,0.451-0.228
			c0.06-0.057,0.114-0.057,0.17-0.057c0.451,0,0.738,0.397,0.738,0.735v38.098c0,0.397-0.287,0.736-0.738,0.736
			c-0.342,0-0.677-0.339-0.677-0.736V279.524z"/>
		<path d="M466.186,305.508H446.37l-3.793,10.133c-0.056,0.284-0.338,0.508-0.621,0.508c-0.056,0-0.169-0.057-0.283-0.057
			c-0.342-0.167-0.511-0.564-0.342-0.961l14.266-38.04c0.117-0.34,0.396-0.509,0.738-0.454c0.279,0,0.566,0.171,0.731,0.454
			l14.266,38.04c0.173,0.396-0.055,0.794-0.394,0.961c-0.113,0-0.169,0.057-0.228,0.057c-0.279,0-0.566-0.224-0.731-0.508
			L466.186,305.508z M446.937,304.037h18.684l-9.34-24.796L446.937,304.037z"/>
		<path d="M485.623,278.052h-13.078c-0.396,0-0.735-0.283-0.735-0.678s0.339-0.737,0.735-0.737h27.568
			c0.451,0,0.734,0.342,0.734,0.737s-0.283,0.678-0.734,0.678h-13.02v37.475c0,0.397-0.397,0.736-0.739,0.736
			c-0.452,0-0.731-0.339-0.731-0.736V278.052z"/>
		<path d="M522.325,278.052h-13.074c-0.397,0-0.739-0.283-0.739-0.678s0.342-0.737,0.739-0.737h27.567
			c0.448,0,0.731,0.342,0.731,0.737s-0.283,0.678-0.731,0.678h-13.023v37.475c0,0.397-0.396,0.736-0.738,0.736
			c-0.448,0-0.731-0.339-0.731-0.736V278.052z"/>
		<path d="M549.063,316.264h-0.11c-0.456,0-0.681-0.339-0.681-0.736v-38.153c0-0.34,0.225-0.68,0.681-0.737h0.055h0.056h21.006
			c0.397,0,0.677,0.342,0.677,0.737s-0.279,0.678-0.677,0.678h-20.381v17.662h17.94c0.397,0,0.684,0.34,0.684,0.68
			c0,0.452-0.286,0.735-0.684,0.735h-17.94v17.718h20.381c0.397,0,0.677,0.283,0.677,0.68c0,0.397-0.279,0.736-0.677,0.736h-20.951
			H549.063z"/>
		<path d="M603.426,307.715c0-2.775-1.246-4.699-2.83-6.114c-1.533-1.356-3.794-2.942-10.021-2.942h-6.965v16.869
			c0,0.397-0.283,0.736-0.677,0.736c-0.396,0-0.738-0.339-0.738-0.736v-38.153c0-0.395,0.342-0.737,0.738-0.737h0.055h0.06h11.49
			c6.058,0,11.034,4.925,11.034,11.04c0,5.038-3.338,9.228-7.921,10.529c0.676,0.281,1.356,0.623,2.036,1.019
			c2.492,1.415,5.153,4.133,5.153,8.49c0,3.227,0.452,4.982,0.846,5.773c0.396,0.736,0.738,0.68,0.907,0.68
			c0.453-0.055,0.85,0.227,0.904,0.568c0.118,0.734-0.511,0.904-0.963,0.904c-0.566,0-1.471-0.396-2.036-1.527
			C603.822,312.979,603.426,311.111,603.426,307.715z M594.538,297.184h0.11c5.208-0.055,9.453-4.187,9.453-9.507
			c0-5.322-4.3-9.625-9.563-9.625H583.61v19.132H594.538z"/>
	</g>
</g>
<g id="icon">
	<g>
		<circle fill="#FF6C6C" cx="241.99" cy="317.158" r="7.612"/>
		<circle fill="#FF0000" cx="241.99" cy="291.965" r="7.612"/>
		<circle fill="#FF4A4A" cx="259.846" cy="303.315" r="7.613"/>
		<circle fill="#DB0000" cx="259.846" cy="278.122" r="7.613"/>
	</g>
</g>
</svg>
